<svg xmlns="http://www.w3.org/2000/svg" width="128" height="128" viewBox="0 0 24 24"><title>GOV.UK icon</title><path fill="#c4caa7" d="M2.4 13q.4-1-.7-1.6-1-.4-1.6.7a1.2 1.2 0 1 0 2.3 1m.8-3.3q.4-1-.6-1.7-1.1-.2-1.7.7-.4 1.2.7 1.7 1 .3 1.6-.7m1.2-1.1Q5.5 9 6.1 8q.3-1.1-.7-1.6C4.8 6 4 6.4 3.8 7q-.4 1 .6 1.6m3.2 1c.6.3 1.4 0 1.6-.6q.4-1.1-.7-1.7-1-.3-1.6.7c-.3.6 0 1.4.7 1.6m14 3.3a1.2 1.2 0 1 0 2.3-1q-.6-1-1.6-.6c-.7.2-1 1-.7 1.6m.7-2.6c.7-.2 1-1 .7-1.6q-.6-1.1-1.6-.7-1.1.6-.7 1.6.6 1.1 1.6.7m-2.8-1.7a1.3 1.3 0 0 0-1-2.3q-1 .5-.6 1.6.6 1 1.6.7m-3.4.8c.7-.2 1-1 .7-1.6q-.6-1-1.6-.7-1.1.5-.7 1.7.6 1 1.6.6M9.4 5l.1 2.4 1.8-.9v.1c0 .7-.5 2-.8 2.6a1.6 1.6 0 1 0 3 1.2q.2-1-.3-1.6l-1-2.2.2-.2 1.9 1V5l-2 .6.8-2.2h-2.3l.7 2-.2.2zm12 9.1V16q-.6-.4-.8-1.6l-1 2.8q.9-.5 1.4-.6-1.4 2.4-2.4 2-1.2-.3-1-1.4c.2-.9 1-1 1.4 0 .8-1.7-.5-2.2-1.3-1.7q2-1.8.4-3.8c-1.5 1-1.5 2.2-.9 3.7-.8-1-2.1-.4-1.7 1.1.6-1 1.5-.3 1.3.6 0 .8-1.1 1.4-2.4 1.3-2-.2-2-1.5-2-2.5q.7-.2 2 1.3l.2-3a3 3 0 0 1-2.2 1c.3-.8 1.5-2 1.5-2L10 13s1.2 1.3 1.5 2.1q-1.2.1-2.3-1l.3 3q1.2-1.5 2-1.3c0 1-.2 2.3-2 2.5-1.3 0-2.4-.5-2.5-1.3-.1-1 .7-1.5 1.3-.6.5-1.6-.8-2-1.7-1.1Q8 13 6 11.5q-1.5 2 .4 3.9c-.8-.5-2.1 0-1.4 1.6.4-1 1.3-.8 1.5 0q.2 1-1 1.5t-2.5-2q.7 0 1.4.5l-.9-2.7q-.3 1-.7 1.5-.3-.7 0-1.8l-1.8.6q1.4 1.6 2.6 6a64 64 0 0 1 17 .2c.7-3.1 1.7-4.8 2.6-6.1z"/></svg>
