<svg xmlns="http://www.w3.org/2000/svg" width="128" height="128" viewBox="-247 0 1245 1245">
  <path fill="#c4caa7" d="M20 28l6 7a117 117 0 0 1 25.1 72.6v55.8l.2 111.3v58.5l.1 2.5v74.8l.2 98.5v2.3l.1 118.4c0 15 .7 29 4.9 43.5l.7 2.7A107 107 0 0 0 86 724l2.4 2.5c15 14.5 35.1 24.5 55.6 28.5l2.1.5c8.7 1.8 17.3 1.8 26.1 1.8H206l110.5.3a142 142 0 0 1 27 2.1c9.9 2 18.5 7.1 24.6 15.3a142 142 0 0 1 7 14c2.7-2.4 4-5 5.7-8.2A44 44 0 0 1 406 760c8.7-2.6 17.4-2.3 26.4-2.3h34.4l113-.4c28.4 0 57.5-8.2 79.2-27.3l2.5-2a108 108 0 0 0 37-69.7c1.9-11.2 1.8-22.4 1.8-33.8v-43.6l.1-113.5v-58.6l.1-77.2v-2.5l.2-214c0-14.3.5-27.7 5-41.4l.7-2.4q7.6-23 24.1-40.6c1.6-1.4 1.6-1.4 1.5-2.7z"/>
  <path fill="#7a7f62" d="M336 102h80v249h209v80H416v249l-17 4c-7.8 3.5-18 9-22 17-3.3-1-3.6-1.5-5.5-4.1-8.8-10.5-22.5-14.7-35.5-16.9V431H127v-80h209z"/>
  <path fill="#545a3e" d="M416 102h209v249H416zM127 102h209v249H127zM127 431h209v248l-84.2.3h-42.4l-28.8.2c-15 .1-26.8-2.8-38.3-12.9L140 664l-1.5-1.6c-11.7-14-11.8-32.7-11.7-50V531zM416 431h209l.2 98.4V579l.2 33.7c0 19.6-1 38.9-15.2 54-12.5 11.5-27.6 12.9-43.9 12.7h-30.9l-36.6-.1-82.8-.2z"/>
</svg>
