<svg xmlns="http://www.w3.org/2000/svg" width="128" height="73" viewBox="0 0 600 340"><g fill="#dac769"><path d="M270.2 296.9 20.4 285.3 20 300l.4 14.7 249.8-11.6zM271.6 290.3 30.7 223.5 27 237.7l-2.9 14.4 246.1 44.3zM274.5 284.2 54.4 165.5l-6.7 13-6 13.4 230.1 98zM278.6 278.9 90.5 114.2l-9.4 11.2-8.8 11.7 202.4 146.7zM283.8 274.7 137.1 72.3l-11.7 8.8-11.2 9.4 164.7 188.1zM289.9 271.8l-98-230.1-13.4 6-13 6.7 118.7 220.1zM296.4 270.2 252.1 24.1 237.7 27l-14.2 3.7 66.8 240.9zM303.1 270.2l11.6-249.8L300 20l-14.7.4 11.6 249.8zM309.7 271.6l66.8-240.9-14.2-3.7-14.4-2.9-44.3 246.1zM315.8 274.5 434.5 54.4l-13-6.7-13.4-6-98 230.1zM321.1 278.6 485.8 90.5l-11.2-9.4-11.7-8.8-146.7 202.4zM325.3 283.8l202.4-146.7-8.8-11.7-9.4-11.2-188.1 164.7zM328.2 289.9l230.1-98-6-13.4-6.7-13-220.1 118.7zM329.8 296.4l246.1-44.3-2.9-14.4-3.7-14.2-240.9 66.8zM329.8 303.1l249.8 11.6.4-14.7-.4-14.7-249.8 11.6z"/><path d="M210 300a90 90 0 0 1 180 0z"/></g></svg>
