<svg xmlns="http://www.w3.org/2000/svg" width="128" height="128" viewBox="0 0 500 500"><path fill="#c4caa7" d="M249 10c3.3 2.6 4.1 5.6 5.5 9.5l.7 2 1.5 4.5 4.3 12.6 1 2.7L274 75.5l7.4 20.4 11.6 32.6 11.5 32 .8 2 1.8 5c.8 2.5.8 2.5.8 5.5h164c-1.3 4-4 5.6-7.2 8q-7.4 5.5-14.3 11.5-6.7 5.7-13.5 11-7.8 6-15.4 12.6l-11.8 9.7-10.4 8.4-2 1.7-4.3 3.4-10.1 8.2-4 3.3-10 8-14.5 11.8-2.3 1.8-4.2 3.4-2 1.5q-.7.8-1.7 1.4c-1.6 1.4-1.6 1.4-2.3 4.3.3 2.1.3 2.1 1 4.4l.8 2.7.9 3 .9 3.3 3 10.7 17.7 62.1.7 2.5 16.1 56.9 1 3.1.7 2.9.7 2.4c.5 2 .5 2 .5 4-5.1-1.7-9.2-4.7-13.6-7.8l-5.2-3.6-2.6-1.8-12.1-8.3-4.7-3.2-2.4-1.7-7.1-4.9-2.4-1.6-78.8-54-2.3-1.6-2-1.4c-2-1.3-2-1.3-4.8-2.1-2.5 1.2-2.5 1.2-5.2 3.1l-3 2.1-3.3 2.2-3.1 2.2q-7.5 5-15 10.4c-6.6 5-13.5 9.4-20.4 14q-7.5 4.8-14.5 10c-6.7 5-13.6 9.4-20.5 14q-7.5 4.8-14.5 10-8.7 6.3-17.7 12.1-9.4 6-18.3 12.9c-1.5 1-1.5 1-3.5 1q.9-7.2 3-14.2l.5-2 6.3-22.3 4.6-16.5a12156 12156 0 0 1 28.2-99.2l1-3c.4-3 .3-5-.6-7.8-1.5-1.8-1.5-1.8-3.4-3.2l-2.2-1.8-2.3-1.7-2.3-2-12.3-9.8-2.6-2-11.4-9.5-25-20.5-2.7-2.2-41.3-33.8-11.4-9.4-2.7-2.2L26 175v-2l164-1 22-61 33.1-91.1.9-2.4c1.9-5.3 1.9-5.3 3-7.5"/><path fill="#c4caa7" d="m484 193 1.9 9.4.5 2.6c3 15 4 29.8 4 45.1v2.6A214 214 0 0 1 487 293l-.5 2.7C476.7 346.5 449 401 407 433h-2l-15.4-54-1-3.1c-.6-2.8-.9-5-.6-7.9 1.8-2.8 1.8-2.8 4.4-5.8 19-23.7 30.9-52.1 36.3-81.9l.3-2q2.4-12.2 1.6-24.8c-1.2-18.4-1.2-18.4 3-23.3q4-3.6 8.7-6.2 3.5-2.1 6.5-4.9l2.4-1.9 10.7-8.6 2.1-1.7 9.4-7.7 3-2.5 2.5-2.2c2.1-1.5 2.1-1.5 5.1-1.5M16 194c3.9 1.7 7 4.2 10.4 6.9l1.8 1.4q7.5 6 14.8 12.4 5 4.4 10.2 8.5l2.3 2c2.5 2 2.5 2 5.6 3.4 3.6 2.2 5.6 3.8 7.9 7.4 1.3 6.9.5 14 .1 21-1 30.6 11 61.8 26.3 87.8l1.1 1.8q2.7 4.5 6.2 8.4c2.6 3 4.6 5.5 6.3 9-.3 3.2-.3 3.2-1.3 6.8l-.6 2-3.8 13L91 429c-33.8-16.5-57.3-67.7-69-101-8.6-25-12.4-50.7-12.3-77.1v-2.6c0-18.5 2-36.3 6.3-54.3M197 423.2c35.6 11.3 78.7 12.2 113.6-2.3 3.5-1.3 6-1.2 9.4.1l5 3.6a381 381 0 0 0 17.8 12.3q12 7.9 23.8 16.4c2.3 1.7 2.3 1.7 4.4 2.7-1.1 3.4-1.5 3.6-4.4 5.2l-2.3 1.2-2.4 1.2-2.6 1.4a249 249 0 0 1-62.5 21.3l-2.3.4a225 225 0 0 1-44.1 3.6h-2.7a211 211 0 0 1-43.8-4c-27.3-5.4-53-14.8-76.9-29.3q4.2-4.4 9.3-7.7l3.1-2.1 3.4-2.3 24.1-16.4a146 146 0 0 0 11.8-8.8c5.7-1.8 12.8 1.7 18.3 3.5M273 12c45 1.3 90.1 21.3 125 49l2.6 2c29 23.1 53.3 53 68.4 87v2a1264 1264 0 0 1-37.6 1c-28 1.1-28 1.1-33.6-4-2.7-3.3-4.1-7-5.8-11a63 63 0 0 0-5.2-6q-4.1-4.2-8-8.7c-16-18.9-40.2-32.3-62.8-41.5l-2.3-1c-2.8-1-2.8-1-6.5-1.3-4.6-.6-8.5-1.5-12.2-4.5-5-7.4-7.2-16.6-9.7-25l-6.4-20z"/><path fill="#c4caa7" d="M226 12a521 521 0 0 1-12.5 40.9c-6 19.4-6 19.4-11.8 23.8-4.9 2.6-10 3.8-15.5 4.8q-4 1-8 2.8l-2.3 1-2.2 1-2.4 1.1a170 170 0 0 0-43 29.5l-6 5.2a103 103 0 0 0-22 27C98 152 98 152 95 152.8h-5.6l-11-.1-11.7-.2-12-.1q-12 0-23.7-.3c1.8-5.4 4-10.1 6.6-15.1l1.4-2.6a169 169 0 0 1 13.4-21.2 229 229 0 0 1 17.6-22q2.7-2.8 5.1-5.8C109.5 46 172.6 10 226 12"/></svg>
