<svg xmlns="http://www.w3.org/2000/svg" width="128" height="128" viewBox="0 0 960 960"><path fill="#dac769" d="m683 70 3 1.4c31.6 14.8 61.7 32 90 52.6l1.8 1.3L788 133l1.6 1.2q14.1 11 27.4 22.8l1.6 1.5A541 541 0 0 1 855 195l2.8 3.1c32.8 37.4 57 80 73.2 126.9l1 3c13.5 39 21.9 80 26 121q0 1.3.3 2.6a532 532 0 0 1 2 58.2 413 413 0 0 1-4 64.5c-5.6 39-15.3 77-32.3 112.7l-1.3 2.7c-20 42-50.8 78.9-83.7 111.3 1.5 3.7 3.6 5.5 6.7 8q7 5.5 13.8 11.5 7.8 6.8 15.7 13.2 5.9 4.8 11.6 9.8 6.8 5.9 13.9 11.5 9.3 8 10.7 20.3A66 66 0 0 1 893 921l-1.8 2.3a72 72 0 0 1-44.6 26c-14.8 0-27.5-7.8-38-17.8q-3.9-3.7-8.1-7-7.1-5.8-13.8-12-3.9-3.6-8.1-7-6.9-5.4-13.1-11.4-6.2-5.6-12.8-10.8a240 240 0 0 1-11-10L739 871l-2.6-2.5c-5.4-2.4-9.7-.3-15.1 1.5a201 201 0 0 1-28.1 6.4l-3.1.4c-86.4 12.3-170.5-24.2-238.4-75a679 679 0 0 1-60-50.7l-2.3-2-8.4-7.1c-12.5 8.5-22.7 16-28.3 30.4-14.6 37.7-45.2 60.9-79.3 80.4a164 164 0 0 0-49 42.6l-2 2.4q-6 8-11.7 16.1c-14.3 20.5-14.3 20.5-23.7 23.1l-3.7 1.1c-12.2 3.4-27.5 6.1-39.3.3a26 26 0 0 1-11.6-17.5 68 68 0 0 1-.4-14.9l.1-3.5c1.4-13.7 9.3-20.4 19-29.3l9-8.5 2-2a137 137 0 0 0 17.4-19.8c12.3-16 20.1-34.2 27.4-52.8 10-25 22.5-47.4 41.1-67.1l2-2.3c10.5-11.1 23-16.7 36.8-22.6A106 106 0 0 0 320 676l2.5-2.4q7.7-7.5 14.3-16 7.4-8.6 16.2-15.8 4.1-3.8 8-7.8a168 168 0 0 1 11-10c14-1.3 30.7-1.3 43.2 6.1 5.4 4.6 8 12 8.8 18.9a146 146 0 0 1-1.7 18.9c-.8 2.7-1 4.3-.3 7.1 3.2 3.8 7 6.6 11 9.5l6 4.7q13.8 11 29 19.8l2.7 1.6c46 26.6 94.4 47.7 147.3 55.4-9-8.5-9-8.5-18.5-16.5q-6.2-5-12-10.5-7.2-6.7-14.8-12.7-4.4-3.7-8.7-7.8a211 211 0 0 0-11.5-10q-6.7-5.5-13-11.4-5-4.4-10-8.6-6.7-5.5-13-11.4-5-4.4-10-8.6-6.7-5.5-13-11.4-4.8-4.5-10-8.5-7-5.9-13.7-12.2-6.4-5.8-13-11.1-4.6-3.7-8.8-7.8a211 211 0 0 0-11.5-10q-6.7-5.5-13-11.4-5-4.4-10-8.6-6.7-5.5-13-11.4-4.8-4.5-10-8.5-7-5.9-13.7-12.2-6.4-5.8-13-11.1-4.6-3.7-8.8-7.8a211 211 0 0 0-11.5-10q-6.7-5.5-13-11.4-5-4.5-10-8.6-6.7-5.5-13-11.4-5-4.5-10-8.6-6-4.8-11.5-10-6.9-6.4-14.2-12.2-7.1-6-13.8-12.3a279 279 0 0 0-20.6 23l-8.4 10-10.4 12.4q-6.3 7.7-12.8 15-5.9 6.8-11.5 13.8l-11.6 13.6-1.4 1.6c-1.5 1.8-1.5 1.8-3 4.6-2.3 2-2.3 2-4.2 2l-2.2-.3-2.5-.3-10.6-2-2.3-.6-26.3-5.7-14-3.1-27.2-6c4.4-9.2 12.5-16.8 19.2-24.5q4.8-5.4 9.3-11 6.2-7.5 12.7-15 4.8-5.4 9.3-11 6.2-7.5 12.7-15 4.8-5.4 9.3-11 6.2-7.5 12.7-15 4.8-5.4 9.3-11 6.2-7.5 12.7-15 4.8-5.4 9.3-11 6-7.6 12.6-14.8l14.6-17.1 6.8-8.1 2.8-3.2 82.4-97.6 11.3-13.2 1.4-1.8q1.5-1.6 2.8-3.3 4.2-5 8.8-9.4a2698 2698 0 0 1 45 72l-2 2.5-13.4 16-13.5 16q-9.5 10.8-18.5 22-6.2 7.6-12.6 14.8a77 77 0 0 0-6 7.7q9.8 9.2 20.2 17.7l9.2 7.7 1.6 1.4 6.7 5.6q8.2 7 16.7 14 7.3 6 14.4 12.2 5.2 4.5 10.7 8.9l16 13.4q10.8 9.5 22 18.5 7.2 6 14.3 12.2 5.2 4.5 10.7 8.9l14.3 12 10.7 9 16 13.4q10.8 9.5 22 18.5 7.2 6 14.3 12.2 5.2 4.5 10.7 8.9l14.3 12 10.7 9 16 13.4q10.8 9.5 22 18.5 7.2 6 14.3 12.2 5.2 4.5 10.7 8.9l14.3 12 10.7 9 16 13.4q10.8 9.5 22 18.5 7.2 6 14.3 12.2l13.3 11q3.3 2.8 6.5 5.7l2 1.6 3.5 3.4c3.3 2.9 3.3 2.9 7.4 3.9 3.5-1.7 6-4.1 8.8-6.8l1.8-1.6 7-6.8c28.4-26.5 45.7-67.4 55.9-104l.7-2.7A421 421 0 0 0 845.2 496a435 435 0 0 0-41-189.1A338 338 0 0 0 758 233l-2.2-2.7-6.8-8.3-2.5-3a365 365 0 0 0-28.5-30.2 252 252 0 0 0-25.5-22.8C660.2 137.4 622 115.2 584 95l-2.9-1.5A748 748 0 0 0 468 45l-3.6-1.2c-30-10.2-60.5-18-91.4-24.8v-2l20.7-2.8C475.7 3.1 564.4 22.4 683 70"/><path fill="#dac769" d="M329 219a43 43 0 0 1-7 10l-3 3.6-1.6 1.7-5.9 7.2-11.4 13.7q-4.5 5-8.6 10.3-8.3 10.2-17 20.2l-16.2 19.5-9.2 11q-4.5 5-8.6 10.3l-11.4 13.7q-4.5 5-8.6 10.3l-11.4 13.7-8.5 10.2q-6 7.3-12.2 14.4l-11.1 13.4-7.8 9.3-10 12-11.4 13.7q-4.5 5-8.6 10.3l-11.4 13.7-8.5 10.2q-6 7.3-12.2 14.4l-11.1 13.4Q86.8 510.7 77 522q-5.4-5.2-10.1-11l-1.5-1.6q-5-6-9.8-12.3-6.6-8.5-13.9-16.7-7-8.1-13.7-16.4a923 923 0 0 0-22.5-27l-2.2-2.6-2-2.3C0 430 0 430 0 428a20 20 0 0 1 3.9-5.5l2-2.1 2-2.3q6.8-7.4 13.3-15.2 7-8.6 14.7-16.6a400 400 0 0 0 12.7-14.4q8.7-10.2 17.8-20.1l7.8-8.7 6-6.8q4.6-5.1 9-10.4 7-8.6 14.7-16.6a400 400 0 0 0 12.7-14.4q8.7-10.2 17.8-20.1l7.8-8.7 6-6.8q4.6-5.1 9-10.4 6.2-7.7 13.2-15l1.6-1.6 1.5-1.7c1.6-1.6 1.6-1.6 3.3-4.4 4.8-4.9 15.8-3.4 22.3-3.6l3.7-.1 9.8-.3 10.4-.3 65.1-2c27.4-1 27.4-1 40.8-.8"/></svg>
